<svg width="90" height="90" viewBox="0 0 90 90" fill="none" xmlns="http://www.w3.org/2000/svg">
<rect width="90" height="90" rx="15" fill="white"/>
<path d="M39.5017 40.1093C37.5238 41.9877 34.5426 41.8111 32.6658 39.8262C30.8847 37.9526 30.8653 34.962 32.8432 33.0883C34.7277 31.308 37.8023 31.3865 39.5873 33.2664C41.4664 35.2451 41.3793 38.3243 39.5017 40.1093ZM56.5725 58.1041C54.5969 59.9778 51.611 59.8004 49.8213 57.9229C47.9515 55.9426 48.0309 53.0633 50.0072 51.1803C51.8848 49.3992 54.8707 49.382 56.7444 51.3576C58.5301 53.2398 58.4508 56.3183 56.5725 58.1041Z" fill="#5A189A"/>
<path d="M49.1299 49.5003C46.7779 51.7333 43.2203 51.5163 41.1071 49.288C38.8702 46.9367 38.8608 43.383 41.2089 41.1547C43.442 39.0329 47.1092 39.1301 49.3336 41.4829C51.4562 43.7198 51.3582 47.3793 49.1299 49.5003Z" fill="#5A189A"/>
<path d="M31.4766 48.2823C29.9972 49.6831 27.5877 49.5322 26.1807 48.0482C24.7737 46.5595 24.8382 44.251 26.3246 42.8464C27.8062 41.4378 30.2119 41.4028 31.6181 42.8868C33.0275 44.37 32.9629 46.8737 31.4766 48.2823Z" fill="#5A189A"/>
<path d="M46.3835 63.9997C44.9042 65.409 42.5918 65.346 41.1872 63.8667C39.7763 62.3834 39.7452 59.9684 41.2315 58.5645C42.7108 57.1521 45.2184 57.2268 46.6231 58.7069C48.0309 60.1901 47.8675 62.5958 46.3835 63.9997Z" fill="#5A189A"/>
<path d="M27.8933 17.8539C27.24 17.1672 27.2688 16.0106 28.059 15.2577C28.7504 14.602 29.9062 14.6285 30.5666 15.3199C31.3179 16.1171 31.2891 17.2644 30.5915 17.9247C29.8043 18.6776 28.6486 18.6465 27.8933 17.8539Z" fill="#5A189A"/>
<path d="M15.1191 29.8279C14.4634 29.1364 14.4969 27.9892 15.1875 27.3289C15.9824 26.5752 17.132 26.6071 17.7923 27.2939C18.5405 28.0872 18.5118 29.243 17.7192 29.9959C17.0262 30.6515 15.8704 30.6259 15.1191 29.8279Z" fill="#5A189A"/>
<path d="M10.7495 23.7806C10.2136 23.2183 10.2401 22.2795 10.8001 21.7436C11.4472 21.1276 12.3883 21.1494 12.9226 21.7211C13.5363 22.3635 13.5091 23.2984 12.8627 23.9097C12.302 24.4456 11.3608 24.4277 10.7495 23.7806Z" fill="#5A189A"/>
<path d="M22.3244 12.4935C21.7862 11.9265 21.8127 10.9916 22.3773 10.451C23.0198 9.83968 23.9609 9.8669 24.4968 10.4292C25.1081 11.0764 25.0817 12.0151 24.4369 12.6265C23.8753 13.1624 22.9342 13.1406 22.3244 12.4935Z" fill="#5A189A"/>
<path d="M13.611 14.8276C12.953 14.1323 12.9864 12.9757 13.6732 12.3161C14.3646 11.6651 15.5251 11.6962 16.187 12.3916C16.929 13.1756 16.8986 14.336 16.2072 14.9917C15.5158 15.6474 14.36 15.6124 13.611 14.8276Z" fill="#5A189A"/>
<path d="M33.827 24.7373C32.7 23.5543 32.8502 21.7296 33.9406 20.6975C35.1252 19.5728 36.8557 19.6164 37.9804 20.8002C39.0125 21.8937 38.9658 23.6258 37.7859 24.7466C36.6932 25.7873 34.8615 25.8316 33.827 24.7373Z" fill="#5A189A"/>
<path d="M20.282 37.5847C19.1589 36.4017 19.2055 34.6649 20.3885 33.5441C21.4782 32.5174 23.3076 32.4638 24.433 33.6507C25.4628 34.7411 25.3236 36.5705 24.2339 37.5979C23.047 38.7226 21.3149 38.6782 20.282 37.5847Z" fill="#5A189A"/>
<path d="M18.8159 22.2966C17.7837 21.2077 17.93 19.3776 19.0126 18.3455C20.2003 17.2208 21.934 17.269 22.9645 18.3595C24.0947 19.5425 24.0503 21.2785 22.8603 22.4032C21.773 23.4353 19.9436 23.4843 18.8159 22.2966Z" fill="#5A189A"/>
<path d="M25.6253 30.6648C24.2253 29.1854 24.3824 26.7836 25.8626 25.3704C27.3536 23.9618 29.6659 24.028 31.0675 25.5127C32.476 26.9921 32.511 29.4024 31.0231 30.811C29.5383 32.2195 27.0362 32.1495 25.6253 30.6648Z" fill="#5A189A"/>
<path d="M71.8908 62.5732C72.5683 63.2468 73.7241 63.2375 74.4863 62.4628C75.1599 61.7846 75.1505 60.6288 74.4731 59.9591C73.693 59.193 72.5457 59.1977 71.8722 59.879C71.1107 60.6505 71.1107 61.8024 71.8908 62.5732Z" fill="#5A189A"/>
<path d="M59.6463 75.0963C60.3291 75.7652 61.4803 75.7605 62.1546 75.0831C62.9246 74.3029 62.916 73.1518 62.2425 72.4775C61.4631 71.716 60.3027 71.7246 59.5397 72.4954C58.8669 73.1744 58.8762 74.3302 59.6463 75.0963Z" fill="#5A189A"/>
<path d="M65.6048 79.5934C66.1586 80.1378 67.0974 80.1332 67.6473 79.5841C68.2765 78.9548 68.2672 78.0122 67.7134 77.4662C67.0803 76.8416 66.1415 76.8416 65.5115 77.4755C64.9709 78.0293 64.9709 78.9688 65.6048 79.5934Z" fill="#5A189A"/>
<path d="M77.1308 68.2611C77.6845 68.8017 78.6288 68.8017 79.1732 68.244C79.8024 67.614 79.7939 66.6714 79.244 66.1261C78.6109 65.4969 77.6674 65.5055 77.0429 66.1432C76.4976 66.6931 76.4976 67.6366 77.1308 68.2611Z" fill="#5A189A"/>
<path d="M74.6107 76.9217C75.2975 77.586 76.4533 77.5821 77.1261 76.9046C77.795 76.2311 77.7903 75.0659 77.109 74.3971C76.3382 73.6348 75.1777 73.6387 74.5042 74.3169C73.8353 74.9944 73.8493 76.1556 74.6107 76.9217Z" fill="#5A189A"/>
<path d="M65.1311 56.4995C66.2869 57.6514 68.117 57.541 69.1709 56.4778C70.3221 55.3173 70.3135 53.5852 69.1531 52.438C68.0813 51.3794 66.3499 51.388 65.2019 52.5492C64.1473 53.6163 64.0586 55.4503 65.1311 56.4995Z" fill="#5A189A"/>
<path d="M52.0007 69.7763C53.1611 70.9274 54.8932 70.9149 56.0498 69.7537C57.0998 68.6819 57.1838 66.8611 56.0233 65.71C54.9508 64.6561 53.1253 64.7533 52.0714 65.8244C50.9289 66.9895 50.9374 68.7224 52.0007 69.7763Z" fill="#5A189A"/>
<path d="M67.2615 71.5574C68.3247 72.6159 70.1587 72.5055 71.2087 71.443C72.3645 70.2733 72.3513 68.545 71.2842 67.4911C70.1237 66.3439 68.3862 66.3478 67.2397 67.5129C66.1804 68.5754 66.0964 70.414 67.2615 71.5574Z" fill="#5A189A"/>
<path d="M59.0264 64.5714C60.4793 66.011 62.8896 65.8998 64.3332 64.4469C65.7689 62.994 65.7503 60.6817 64.2974 59.2428C62.8445 57.8023 60.4349 57.7183 58.9991 59.1759C57.5556 60.6334 57.5735 63.1356 59.0264 64.5714Z" fill="#5A189A"/>
<path d="M47.712 32.6536C49.1742 31.2224 49.112 28.809 47.6856 27.3514C46.2505 25.8892 43.9429 25.8635 42.4806 27.2946C41.0169 28.7211 40.8924 31.126 42.3212 32.5882C43.7523 34.0497 46.2591 34.08 47.712 32.6536Z" fill="#5A189A"/>
<path d="M62.8538 48.1501C64.3161 46.7236 64.3464 44.4074 62.9246 42.9483C61.4896 41.4821 59.08 41.3624 57.6178 42.7888C56.1564 44.2153 56.1299 46.7236 57.5564 48.1851C58.982 49.6473 61.3916 49.5812 62.8538 48.1501Z" fill="#5A189A"/>
<path d="M49.8921 39.498C48.0184 37.5178 48.1903 34.5327 50.1752 32.6629C52.0536 30.8825 55.0395 30.8647 56.9178 32.841C58.6896 34.7186 58.6103 37.8025 56.7319 39.5781C54.7564 41.4557 51.6818 41.3717 49.8921 39.498ZM31.8982 56.5618C30.026 54.5862 30.2034 51.6003 32.0817 49.8238C34.0573 47.9463 36.9475 48.0209 38.8196 49.9973C40.6023 51.8756 40.6202 54.8654 38.6446 56.7391C36.7616 58.5249 33.6824 58.4448 31.8982 56.5618Z" fill="#5A189A"/>
<path d="M72.1475 27.8873C72.839 27.2316 73.9994 27.2666 74.7438 28.0506C75.3994 28.7468 75.3637 29.8986 74.6815 30.5543C73.8882 31.3126 72.7324 31.2808 72.0768 30.5854C71.3231 29.796 71.3589 28.6402 72.1475 27.8873Z" fill="#5A189A"/>
<path d="M60.1697 15.12C60.8604 14.4644 62.0216 14.4908 62.6773 15.1823C63.4302 15.9756 63.3952 17.122 62.7037 17.7878C61.9151 18.5407 60.7546 18.5049 60.0056 17.7163C59.3499 17.0155 59.381 15.869 60.1697 15.12Z" fill="#5A189A"/>
<path d="M66.2208 10.7435C66.7832 10.2076 67.7266 10.234 68.2625 10.7963C68.8739 11.4435 68.8521 12.3784 68.2804 12.9142C67.6426 13.5302 66.7031 13.4991 66.0879 12.8567C65.552 12.2897 65.5784 11.3548 66.2208 10.7435Z" fill="#5A189A"/>
<path d="M77.508 22.3145C78.075 21.7825 79.0146 21.8058 79.5504 22.3674C80.1571 23.0145 80.1353 23.9579 79.5722 24.49C78.9251 25.1005 77.9863 25.0748 77.375 24.4324C76.843 23.8693 76.8617 22.9258 77.508 22.3145Z" fill="#5A189A"/>
<path d="M75.1778 13.6057C75.8692 12.9453 77.025 12.9765 77.6814 13.6679C78.3418 14.3594 78.306 15.5198 77.6146 16.1755C76.8259 16.9198 75.6654 16.8934 75.0098 16.2019C74.358 15.5144 74.3891 14.3539 75.1778 13.6057Z" fill="#5A189A"/>
<path d="M65.2634 33.8187C66.4417 32.6986 68.2757 32.8441 69.3078 33.9338C70.4279 35.1168 70.3843 36.8442 69.1966 37.9736C68.1108 39.0057 66.3787 38.9575 65.2494 37.7737C64.218 36.6894 64.1737 34.8508 65.2634 33.8187Z" fill="#5A189A"/>
<path d="M52.4168 20.2767C53.5998 19.1567 55.3319 19.1956 56.4612 20.3833C57.4934 21.4729 57.5377 23.2984 56.35 24.4277C55.2611 25.4599 53.4357 25.3183 52.4036 24.2286C51.2828 23.041 51.3271 21.3088 52.4168 20.2767Z" fill="#5A189A"/>
<path d="M67.6994 18.8098C68.7937 17.7738 70.6239 17.9239 71.6606 19.0097C72.7853 20.1927 72.7324 21.9287 71.6466 22.9616C70.4551 24.0863 68.723 24.0466 67.6022 22.8551C66.5701 21.7693 66.5218 19.9353 67.6994 18.8098Z" fill="#5A189A"/>
<path d="M59.3313 25.6232C60.8153 24.224 63.221 24.3787 64.6295 25.8589C66.0342 27.3475 65.9673 29.6552 64.4872 31.0599C63.0032 32.4692 60.5975 32.5034 59.1889 31.0194C57.7858 29.5346 57.8519 27.0325 59.3313 25.6232Z" fill="#5A189A"/>
<path d="M27.4259 71.8809C26.7523 72.563 26.7632 73.7188 27.5348 74.481C28.2169 75.1546 29.3735 75.1499 30.0447 74.4678C30.8131 73.6924 30.8046 72.5366 30.1264 71.8669C29.3509 71.1047 28.199 71.1047 27.4259 71.8809Z" fill="#5A189A"/>
<path d="M14.9021 59.6449C14.2379 60.3231 14.2379 61.4789 14.9192 62.1486C15.697 62.9186 16.8481 62.91 17.524 62.2318C18.2901 61.4571 18.2769 60.3005 17.5084 59.5298C16.8271 58.8562 15.6713 58.8702 14.9021 59.6449Z" fill="#5A189A"/>
<path d="M10.4057 65.5988C9.86128 66.1572 9.86517 67.0913 10.4151 67.6405C11.0505 68.2705 11.994 68.2611 12.5368 67.7073C13.1684 67.0781 13.1591 66.1355 12.5236 65.5101C11.9722 64.9657 11.0303 64.9703 10.4057 65.5988Z" fill="#5A189A"/>
<path d="M21.7442 77.1302C21.199 77.6839 21.2013 78.6188 21.7551 79.1679C22.3867 79.7925 23.3278 79.7886 23.8746 79.2387C24.4968 78.601 24.4968 77.6622 23.859 77.0423C23.3083 76.4916 22.3688 76.4916 21.7442 77.1302Z" fill="#5A189A"/>
<path d="M13.0821 74.6133C12.4155 75.2915 12.4155 76.4473 13.0976 77.1247C13.7727 77.7889 14.9332 77.7851 15.6067 77.1029C16.362 76.3322 16.3596 75.1717 15.6869 74.4982C15.0063 73.8339 13.8482 73.8433 13.0821 74.6133Z" fill="#5A189A"/>
<path d="M33.5012 65.1205C32.3516 66.2809 32.4582 68.111 33.5237 69.1649C34.6904 70.316 36.4209 70.3075 37.5682 69.147C38.6267 68.0752 38.6158 66.3439 37.4531 65.1959C36.3891 64.1366 34.5535 64.0526 33.5012 65.1205Z" fill="#5A189A"/>
<path d="M20.2252 51.9946C19.0756 53.1597 19.0889 54.8919 20.247 56.0391C21.3188 57.093 23.1442 57.1777 24.2914 56.0173C25.3453 54.9494 25.2481 53.1193 24.1802 52.0654C23.0182 50.9182 21.2791 50.9267 20.2252 51.9946Z" fill="#5A189A"/>
<path d="M18.4464 67.2508C17.3855 68.3187 17.496 70.1519 18.56 71.2066C19.7228 72.3546 21.4549 72.3453 22.5119 71.2828C23.6653 70.1084 23.6568 68.3809 22.4917 67.229C21.4253 66.179 19.5913 66.0903 18.4464 67.2508Z" fill="#5A189A"/>
<path d="M25.4255 59.0203C23.9905 60.4779 24.1009 62.8882 25.5538 64.3224C27.009 65.766 29.3237 65.7442 30.7548 64.2913C32.1945 62.8384 32.2808 60.4289 30.8279 58.9931C29.3704 57.5542 26.8651 57.5721 25.4255 59.0203Z" fill="#5A189A"/>
</svg>
